<svg width="16" height="16" xmlns="http://www.w3.org/2000/svg">

 <g>
  <title>background</title>
  <rect fill="none" id="canvas_background" height="18" width="18" y="-1" x="-1"/>
 </g>
 <g>
  <title>Layer 1</title>
  <path stroke="null" id="svg_1" d="m13.74496,0.919558l-2.117477,0l-6.744555,0l-2.117477,0a1.568501,1.568501 0 0 0 -1.568501,1.568501l0,2.117477l0,6.82298l0,2.039052a1.568501,1.568501 0 0 0 1.568501,1.568501l2.117477,0l6.82298,0l2.039052,0a1.568501,1.568501 0 0 0 1.568501,-1.568501l0,-2.117477l0,-6.744555l0,-2.117477a1.568501,1.568501 0 0 0 -1.568501,-1.568501m-2.666452,10.979509l-2.823302,-2.823302l-2.823302,2.823302l-1.097951,-1.097951l2.823302,-2.823302l-2.823302,-2.823302l1.097951,-1.097951l2.823302,2.823302l2.823302,-2.823302l1.097951,1.097951l-2.823302,2.823302l2.823302,2.823302l-1.097951,1.097951z"/>
 </g>
</svg>